<?xml version="1.0"?>
<svg xmlns="http://www.w3.org/2000/svg" xmlns:xlink="http://www.w3.org/1999/xlink" version="1.1" viewBox="0 0 192 192" width="100px" height="100px"><g fill="none" fill-rule="nonzero" stroke="none" stroke-width="1" stroke-linecap="butt" stroke-linejoin="miter" stroke-miterlimit="10" stroke-dasharray="" stroke-dashoffset="0" font-family="none" font-weight="none" font-size="none" text-anchor="none" style="mix-blend-mode: normal"><path d="M0,192v-192h192v192z" fill="none"/><g id="Layer_1"><g fill="#21be12"><path d="M167.4528,108.8832c2.1792,-4.1376 3.4272,-8.8416 3.4272,-13.8432c0,-12.71232 -7.98528,-23.53344 -19.20192,-27.79776c0,-0.01344 0.00192,-0.02688 0.00192,-0.04224c0,-22.26816 -18.05184,-40.32 -40.32,-40.32c-18.78528,0 -34.52352,12.86592 -39.00096,30.25344c-2.83392,-0.9312 -5.85408,-1.45344 -8.99904,-1.45344c-14.76864,0 -26.92416,11.12256 -28.5888,25.44384c-9.99168,2.11392 -17.4912,10.97664 -17.4912,21.59616c0,12.19392 9.88608,22.08 22.08,22.08c0.33984,0 0.67584,-0.02304 1.00992,-0.04224c-0.00768,0.336 -0.04992,0.66432 -0.04992,1.00224c0,21.73824 17.62176,39.36 39.36,39.36c12.35904,0 23.376,-5.70624 30.59328,-14.61888c4.18176,4.272 9.99552,6.93888 16.44672,6.93888c8.928,0 16.65408,-5.088 20.47872,-12.51456c2.01984,0.6432 4.16832,0.99456 6.40128,0.99456c11.664,0 21.12,-9.456 21.12,-21.12c0,-6.35712 -2.8224,-12.04416 -7.2672,-15.9168z"/></g><g fill="#fdfcef"><path d="M128.88,91.2c0,0 -6.9888,0 -11.76,0c-4.7712,0 -8.64,-3.8688 -8.64,-8.64c0,-4.47936 3.42144,-8.11968 7.7856,-8.5536c-0.04224,-0.34752 -0.1056,-0.68736 -0.1056,-1.0464c0,-4.7712 3.8688,-8.64 8.64,-8.64c2.76096,0 5.18976,1.31712 6.77184,3.33312c0.2688,-5.06112 4.41984,-9.09312 9.54816,-9.09312c5.30112,0 9.6,4.29888 9.6,9.6c0,0.85632 -0.14784,1.6704 -0.35904,2.46144c1.23264,-1.49184 3.072,-2.46144 5.15904,-2.46144c3.41952,0 6.20928,2.5632 6.6336,5.8656c0.34752,-0.04224 0.68736,-0.1056 1.0464,-0.1056c4.7712,0 8.64,3.8688 8.64,8.64c0,4.7712 -3.8688,8.64 -8.64,8.64c-4.7712,0 -18.24,0 -18.24,0h-10.32v0.96h-5.76z"/></g><g fill="#472b29"><path d="M141.12,57.6c5.82336,0 10.56,4.73664 10.56,10.56c0,0.03072 0,0.05952 0,0.09024c1.15584,-0.6816 2.4768,-1.05024 3.84,-1.05024c3.51552,0 6.54912,2.42112 7.40736,5.7696c0.09024,-0.00576 0.18048,-0.0096 0.27264,-0.0096c5.29344,0 9.6,4.30656 9.6,9.6c0,5.29344 -4.30656,9.6 -9.6,9.6h-28.56c-0.52992,0 -0.96,-0.43008 -0.96,-0.96c0,-0.52992 0.43008,-0.96 0.96,-0.96h28.56c4.23552,0 7.68,-3.44448 7.68,-7.68c0,-4.23552 -3.44448,-7.68 -7.68,-7.68c-0.22464,0 -0.4416,0.03264 -0.65856,0.06144l-0.27072,0.03648c-0.04032,0.00576 -0.07872,0.00768 -0.11904,0.00768c-0.47232,0 -0.88704,-0.3552 -0.9504,-0.83904c-0.36672,-2.86656 -2.80896,-5.02656 -5.68128,-5.02656c-1.6992,0 -3.30816,0.76992 -4.41792,2.112c-0.18816,0.22656 -0.46272,0.34944 -0.74112,0.34944c-0.14976,0 -0.29952,-0.03456 -0.43776,-0.10752c-0.40128,-0.20544 -0.60288,-0.66432 -0.48768,-1.10016c0.2208,-0.8352 0.32448,-1.53792 0.32448,-2.21376c0,-4.76352 -3.87648,-8.64 -8.64,-8.64c-4.57152,0 -8.34624,3.59424 -8.59008,8.18496c-0.02112,0.39936 -0.288,0.74304 -0.67008,0.864c-0.096,0.03072 -0.19392,0.04608 -0.29184,0.04608c-0.288,0 -0.56832,-0.13248 -0.75264,-0.36864c-1.48032,-1.88544 -3.67104,-2.9664 -6.01536,-2.9664c-4.23552,0 -7.68,3.44448 -7.68,7.68c0,0.22464 0.03264,0.4416 0.06144,0.65856l0.03648,0.27072c0.03072,0.25728 -0.04224,0.51456 -0.20352,0.71616c-0.16128,0.2016 -0.39744,0.33024 -0.6528,0.3552c-3.94752,0.3936 -6.9216,3.66144 -6.9216,7.59936c0,4.23552 3.44448,7.68 7.68,7.68h11.76c0.52992,0 0.96,0.43008 0.96,0.96c0,0.52992 -0.43008,0.96 -0.96,0.96h-11.76c-5.29344,0 -9.6,-4.30656 -9.6,-9.6c0,-4.60224 3.24288,-8.47296 7.68576,-9.36384c-0.00384,-0.07872 -0.00576,-0.15744 -0.00576,-0.23616c0,-5.29344 4.30656,-9.6 9.6,-9.6c2.25792,0 4.40256,0.79872 6.11136,2.23488c1.14816,-4.61568 5.30304,-7.99488 10.20864,-7.99488z"/></g><g fill="#472b29"><path d="M144,71.04c2.69376,0 5.00928,1.91808 5.59296,4.49472c0.70464,-0.42624 1.50912,-0.65472 2.32704,-0.65472c2.30784,0 4.22016,1.72224 4.51776,3.97056c0.38976,-0.08832 0.76032,-0.13056 1.1232,-0.13056c2.93568,0 5.39712,2.304 5.60256,5.24544c0.01728,0.26496 -0.1824,0.49536 -0.44544,0.51456c-0.01152,0 -0.02304,0 -0.03456,0c-0.2496,0 -0.4608,-0.19392 -0.47808,-0.44544c-0.17088,-2.44032 -2.20992,-4.35456 -4.64448,-4.35456c-0.43968,0 -0.9024,0.08064 -1.41696,0.24384c-0.04224,0.01344 -0.0864,0.0192 -0.12864,0.0192c-0.1056,0 -0.2112,-0.0384 -0.29952,-0.10368c-0.12288,-0.08832 -0.19584,-0.24576 -0.19584,-0.39936c0,-1.98528 -1.61472,-3.6 -3.6,-3.6c-0.85824,0 -1.6992,0.32256 -2.36352,0.90816c-0.09024,0.07872 -0.20352,0.12096 -0.3168,0.12096c-0.06144,0 -0.12096,-0.01152 -0.17856,-0.03648c-0.16896,-0.0672 -0.28416,-0.22464 -0.2976,-0.40704c-0.19968,-2.48256 -2.29056,-4.4256 -4.76352,-4.4256c-0.39936,0 -0.816,0.06528 -1.30944,0.20544c-0.04416,0.01344 -0.09024,0.0192 -0.1344,0.0192c-0.20928,0 -0.39744,-0.14016 -0.45888,-0.34944c-0.07296,-0.25536 0.07488,-0.52032 0.33024,-0.59328c0.57984,-0.16512 1.08096,-0.24192 1.57248,-0.24192z"/></g><g fill="#472b29"><path d="M117.34464,73.92c2.54592,0 4.81536,1.72224 5.51808,4.18944c0.07296,0.25536 -0.07488,0.52032 -0.33024,0.59328c-0.04608,0.01152 -0.09024,0.01728 -0.13248,0.01728c-0.20928,0 -0.40128,-0.13824 -0.4608,-0.34944c-0.5856,-2.0544 -2.47488,-3.49056 -4.59456,-3.49056c-0.22464,0 -0.4416,0.02688 -0.65664,0.05568c-0.02304,0.00384 -0.04416,0.00576 -0.0672,0.00576c-0.23232,0 -0.43968,-0.17664 -0.47232,-0.41664c-0.03648,-0.26304 0.14784,-0.50496 0.41088,-0.53952c0.25728,-0.03456 0.5184,-0.06528 0.78528,-0.06528z"/></g><g fill="#ffffff"><path d="M29.5776,97.92h-19.0176c-0.52992,0 -0.96,-0.43008 -0.96,-0.96c0,-0.52992 0.43008,-0.96 0.96,-0.96h19.0176c0.52992,0 0.96,0.43008 0.96,0.96c0,0.52992 -0.42816,0.96 -0.96,0.96z"/></g><g fill="#ffffff"><path d="M35.52,97.92h-1.92c-0.52992,0 -0.96,-0.43008 -0.96,-0.96c0,-0.52992 0.43008,-0.96 0.96,-0.96h1.92c0.52992,0 0.96,0.43008 0.96,0.96c0,0.52992 -0.42816,0.96 -0.96,0.96z"/></g><g fill="#ffffff"><path d="M45.10272,101.76h-17.26272c-0.52992,0 -0.96,-0.43008 -0.96,-0.96c0,-0.52992 0.43008,-0.96 0.96,-0.96h17.26272c0.52992,0 0.96,0.43008 0.96,0.96c0,0.52992 -0.43008,0.96 -0.96,0.96z"/></g><g fill="#ffffff"><path d="M24,101.76h-1.92c-0.52992,0 -0.96,-0.43008 -0.96,-0.96c0,-0.52992 0.43008,-0.96 0.96,-0.96h1.92c0.52992,0 0.96,0.43008 0.96,0.96c0,0.52992 -0.42816,0.96 -0.96,0.96z"/></g><g fill="#ffffff"><path d="M18.24,101.76h-3.84c-0.52992,0 -0.96,-0.43008 -0.96,-0.96c0,-0.52992 0.43008,-0.96 0.96,-0.96h3.84c0.52992,0 0.96,0.43008 0.96,0.96c0,0.52992 -0.42816,0.96 -0.96,0.96z"/></g><g fill="#ffffff"><path d="M29.76,105.6h-3.84c-0.52992,0 -0.96,-0.43008 -0.96,-0.96c0,-0.52992 0.43008,-0.96 0.96,-0.96h3.84c0.52992,0 0.96,0.43008 0.96,0.96c0,0.52992 -0.43008,0.96 -0.96,0.96z"/></g><g fill="#ffffff"><path d="M35.52,88.32c-0.33984,0 -1.58016,0 -1.92,0c-0.52992,0 -0.96,0.43008 -0.96,0.96c0,0.52992 0.43008,0.96 0.96,0.96c0.33984,0 1.58016,0 1.92,0c0.52992,0 0.96,-0.43008 0.96,-0.96c0,-0.52992 -0.43008,-0.96 -0.96,-0.96z"/></g><g fill="#ffffff"><path d="M35.52,92.16c-0.33984,0 -9.26016,0 -9.6,0c-0.52992,0 -0.96,0.43008 -0.96,0.96c0,0.52992 0.43008,0.96 0.96,0.96c0.33984,0 9.26016,0 9.6,0c0.52992,0 0.96,-0.43008 0.96,-0.96c0,-0.52992 -0.43008,-0.96 -0.96,-0.96z"/></g><g fill="#ffffff"><path d="M45.12,96c-0.33984,0 -5.42016,0 -5.76,0c-0.52992,0 -0.96,0.43008 -0.96,0.96c0,0.52992 0.43008,0.96 0.96,0.96c0.33984,0 5.42016,0 5.76,0c0.52992,0 0.96,-0.43008 0.96,-0.96c0,-0.52992 -0.43008,-0.96 -0.96,-0.96z"/></g><g fill="#ffffff"><path d="M135.36,42.24h-19.2c-0.52992,0 -0.96,-0.43008 -0.96,-0.96c0,-0.52992 0.43008,-0.96 0.96,-0.96h19.2c0.52992,0 0.96,0.43008 0.96,0.96c0,0.52992 -0.43008,0.96 -0.96,0.96z"/></g><g fill="#ffffff"><path d="M143.04,42.24h-3.84c-0.52992,0 -0.96,-0.43008 -0.96,-0.96c0,-0.52992 0.43008,-0.96 0.96,-0.96h3.84c0.52992,0 0.96,0.43008 0.96,0.96c0,0.52992 -0.43008,0.96 -0.96,0.96z"/></g><g fill="#ffffff"><path d="M152.64,46.08h-19.2c-0.52992,0 -0.96,-0.43008 -0.96,-0.96c0,-0.52992 0.43008,-0.96 0.96,-0.96h19.2c0.52992,0 0.96,0.43008 0.96,0.96c0,0.52992 -0.42816,0.96 -0.96,0.96z"/></g><g fill="#ffffff"><path d="M129.6,46.08h-1.92c-0.52992,0 -0.96,-0.43008 -0.96,-0.96c0,-0.52992 0.43008,-0.96 0.96,-0.96h1.92c0.52992,0 0.96,0.43008 0.96,0.96c0,0.52992 -0.43008,0.96 -0.96,0.96z"/></g><g fill="#ffffff"><path d="M123.6,46.08h-3.6c-0.52992,0 -0.96,-0.43008 -0.96,-0.96c0,-0.52992 0.43008,-0.96 0.96,-0.96h3.6c0.52992,0 0.96,0.43008 0.96,0.96c0,0.52992 -0.43008,0.96 -0.96,0.96z"/></g><g fill="#ffffff"><path d="M141.12,38.4h-9.6c-0.52992,0 -0.96,-0.43008 -0.96,-0.96c0,-0.52992 0.43008,-0.96 0.96,-0.96h9.6c0.52992,0 0.96,0.43008 0.96,0.96c0,0.52992 -0.42816,0.96 -0.96,0.96z"/></g><g fill="#ffffff"><path d="M135.36,49.92h-3.84c-0.52992,0 -0.96,-0.43008 -0.96,-0.96c0,-0.52992 0.43008,-0.96 0.96,-0.96h3.84c0.52992,0 0.96,0.43008 0.96,0.96c0,0.52992 -0.43008,0.96 -0.96,0.96z"/></g><g><g fill="#fefdef"><path d="M73.25376,142.656c-4.71552,0 -8.54976,-3.77664 -8.54976,-8.4192v-68.7936c0,-4.64256 3.83616,-8.4192 8.54976,-8.4192h35.7312l22.15104,21.85536v55.35744c0,4.64256 -3.83616,8.4192 -8.54976,8.4192z"/></g><g fill="#472b29"><path d="M108.43584,58.368l7.9776,7.87008l13.37856,13.20192v54.7968c0,3.90144 -3.23328,7.07328 -7.20576,7.07328h-49.33248c-3.9744,0 -7.20576,-3.17376 -7.20576,-7.07328v-68.79552c0,-3.90144 3.23328,-7.07328 7.20576,-7.07328h1.43616h3.21024h10.31616h20.21952M109.53792,55.68h-21.31968h-10.31616h-3.21024h-1.43616c-5.4432,0 -9.89568,4.39296 -9.89568,9.76128v68.79552c0,5.37024 4.45248,9.7632 9.89376,9.7632h49.33056c5.4432,0 9.89376,-4.39296 9.89376,-9.76128v-55.92192h0.00192c-8.92224,-8.8032 -14.01984,-13.8336 -22.94208,-22.6368z"/></g></g><g><path d="M108.48,57.84v10.7904c0,5.02272 3.82272,9.1296 8.49408,9.1296h11.90592" fill="#fef6aa"/><path d="M128.88,78.72h-11.90592c-5.2128,0 -9.45408,-4.52544 -9.45408,-10.09152v-10.78848h1.92v10.78848c0,4.50624 3.3792,8.17152 7.53408,8.17152h11.90592z" fill="#472b29"/></g><g fill="#472b29"><path d="M121.152,138.24h-46.43136c-3.08928,0 -5.60064,-2.4672 -5.60064,-5.49888v-64.87296c0,-3.0144 2.49792,-5.46816 5.568,-5.46816h3.072c0.52992,0 0.96,0.43008 0.96,0.96c0,0.52992 -0.43008,0.96 -0.96,0.96h-3.072c-2.01216,0 -3.648,1.59168 -3.648,3.54816v64.87296c0,1.97376 1.6512,3.57888 3.68064,3.57888h46.43136c2.01216,0 3.648,-1.59168 3.648,-3.54816v-26.61696c0,-0.52992 0.43008,-0.96 0.96,-0.96c0.52992,0 0.96,0.43008 0.96,0.96v26.61696c0,3.01632 -2.49792,5.46816 -5.568,5.46816z"/></g><g fill="#472b29"><path d="M125.76,101.76c-0.52992,0 -0.96,-0.43008 -0.96,-0.96v-7.68c0,-0.52992 0.43008,-0.96 0.96,-0.96c0.52992,0 0.96,0.43008 0.96,0.96v7.68c0,0.52992 -0.43008,0.96 -0.96,0.96z"/></g><g fill="#472b29"><path d="M125.76,90.24c-0.52992,0 -0.96,-0.43008 -0.96,-0.96v-5.76c0,-0.52992 0.43008,-0.96 0.96,-0.96c0.52992,0 0.96,0.43008 0.96,0.96v5.76c0,0.52992 -0.43008,0.96 -0.96,0.96z"/></g><g fill="#472b29"><path d="M96.96,87.84h-19.2c-0.26496,0 -0.48,-0.21504 -0.48,-0.48c0,-0.26496 0.21504,-0.48 0.48,-0.48h19.2c0.26496,0 0.48,0.21504 0.48,0.48c0,0.26496 -0.21504,0.48 -0.48,0.48z"/></g><g fill="#472b29"><path d="M96.96,95.52h-19.2c-0.26496,0 -0.48,-0.21504 -0.48,-0.48c0,-0.26496 0.21504,-0.48 0.48,-0.48h19.2c0.26496,0 0.48,0.21504 0.48,0.48c0,0.26496 -0.21504,0.48 -0.48,0.48z"/></g><g fill="#472b29"><path d="M96.96,103.2h-19.2c-0.26496,0 -0.48,-0.21504 -0.48,-0.48c0,-0.26496 0.21504,-0.48 0.48,-0.48h19.2c0.26496,0 0.48,0.21504 0.48,0.48c0,0.26496 -0.21504,0.48 -0.48,0.48z"/></g><g fill="#472b29"><path d="M91.2,110.88h-13.44c-0.26496,0 -0.48,-0.21504 -0.48,-0.48c0,-0.26496 0.21504,-0.48 0.48,-0.48h13.44c0.26496,0 0.48,0.21504 0.48,0.48c0,0.26496 -0.21504,0.48 -0.48,0.48z"/></g><g fill="#472b29"><path d="M96.96,118.56h-19.2c-0.26496,0 -0.48,-0.21504 -0.48,-0.48c0,-0.26496 0.21504,-0.48 0.48,-0.48h19.2c0.26496,0 0.48,0.21504 0.48,0.48c0,0.26496 -0.21504,0.48 -0.48,0.48z"/></g><g fill="#472b29"><path d="M98.88,126.24h-21.12c-0.26496,0 -0.48,-0.21504 -0.48,-0.48c0,-0.26496 0.21504,-0.48 0.48,-0.48h21.12c0.26496,0 0.48,0.21504 0.48,0.48c0,0.26496 -0.21504,0.48 -0.48,0.48z"/></g><g fill="#472b29"><path d="M118.08,126.24h-15.36c-0.26496,0 -0.48,-0.21504 -0.48,-0.48c0,-0.26496 0.21504,-0.48 0.48,-0.48h15.36c0.26496,0 0.48,0.21504 0.48,0.48c0,0.26496 -0.21504,0.48 -0.48,0.48z"/></g><g fill="#472b29"><path d="M118.08,110.88h-23.04c-0.26496,0 -0.48,-0.21504 -0.48,-0.48c0,-0.26496 0.21504,-0.48 0.48,-0.48h23.04c0.26496,0 0.48,0.21504 0.48,0.48c0,0.26496 -0.21504,0.48 -0.48,0.48z"/></g><g fill="#472b29"><path d="M118.08,118.56h-7.68c-0.26496,0 -0.48,-0.21504 -0.48,-0.48c0,-0.26496 0.21504,-0.48 0.48,-0.48h7.68c0.26496,0 0.48,0.21504 0.48,0.48c0,0.26496 -0.21504,0.48 -0.48,0.48z"/></g><g fill="#472b29"><path d="M106.56,118.56h-7.68c-0.26496,0 -0.48,-0.21504 -0.48,-0.48c0,-0.26496 0.21504,-0.48 0.48,-0.48h7.68c0.26496,0 0.48,0.21504 0.48,0.48c0,0.26496 -0.21504,0.48 -0.48,0.48z"/></g><g><path d="M100.8,105.6v-18.24h17.28v17.28h-10.56" fill="#fef6aa"/><path d="M101.28,105.6h-0.96v-18.72h18.24v18.24h-11.04v-0.96h10.08v-16.32h-16.32z" fill="#472b29"/></g><g fill="#fdfcef"><path d="M72,150.72c0,0 3.00864,0 6.72,0c3.71136,0 6.72,-3.00864 6.72,-6.72c0,-3.41952 -2.5632,-6.20928 -5.8656,-6.6336c0.05376,-0.34368 0.1056,-0.68736 0.1056,-1.0464c0,-3.71136 -3.00864,-6.72 -6.72,-6.72c-1.98144,0 -3.744,0.8736 -4.9728,2.2368c-0.73728,-3.47136 -3.81504,-6.0768 -7.5072,-6.0768c-4.24128,0 -7.68,3.43872 -7.68,7.68c0,0.36672 0.0576,0.71808 0.10752,1.07136c-0.82176,-0.66048 -1.85088,-1.07136 -2.98752,-1.07136c-2.35776,0 -4.3104,1.70304 -4.7136,3.9456c-0.34368,-0.05376 -0.68736,-0.1056 -1.0464,-0.1056c-3.71136,0 -6.72,3.00864 -6.72,6.72c0,3.71136 3.00864,6.72 6.72,6.72c3.71136,0 14.4,0 14.4,0v0.96h13.44z"/></g><g fill="#472b29"><path d="M75.36,142.08c-0.26496,0 -0.48,-0.21504 -0.48,-0.48c0,-2.34816 1.9104,-4.25856 4.25856,-4.25856c0.06528,0.01728 1.41504,-0.00192 2.38848,0.26112c0.25536,0.06912 0.40704,0.33216 0.33792,0.58752c-0.06912,0.25728 -0.33216,0.40896 -0.58752,0.33792c-0.85248,-0.2304 -2.112,-0.2304 -2.13696,-0.22656c-1.82016,0 -3.30048,1.48032 -3.30048,3.29856c0,0.26496 -0.21504,0.48 -0.48,0.48z"/></g><g fill="#472b29"><circle cx="32.5" cy="78.5" transform="scale(1.92,1.92)" r="0.5"/></g><g fill="#472b29"><path d="M78.72,151.68h-6.72c-0.52992,0 -0.96,-0.43008 -0.96,-0.96c0,-0.52992 0.43008,-0.96 0.96,-0.96h6.72c3.17568,0 5.76,-2.58432 5.76,-5.76c0,-2.87232 -2.16,-5.31456 -5.02656,-5.68128c-0.25728,-0.03456 -0.4896,-0.16896 -0.64512,-0.37632c-0.15552,-0.20736 -0.2208,-0.46848 -0.18048,-0.72384c0.04416,-0.29568 0.09216,-0.59136 0.09216,-0.89856c0,-3.17568 -2.58432,-5.76 -5.76,-5.76c-1.632,0 -3.14496,0.6816 -4.26048,1.92c-0.24,0.26688 -0.61632,0.38016 -0.96,0.28416c-0.34944,-0.09408 -0.61632,-0.3744 -0.6912,-0.72768c-0.65472,-3.07968 -3.4176,-5.31648 -6.56832,-5.31648c-3.7056,0 -6.72,3.0144 -6.72,6.72c0,0.27456 0.04032,0.5376 0.07872,0.80256c0.05568,0.38976 -0.12096,0.84096 -0.46464,1.0368c-0.34368,0.19584 -0.76032,0.22656 -1.06752,-0.0192c-0.7008,-0.56256 -1.52448,-0.86016 -2.38656,-0.86016c-1.85472,0 -3.44064,1.32672 -3.76896,3.15648c-0.09216,0.51264 -0.56832,0.85632 -1.09248,0.7776c-0.29568,-0.04608 -0.59136,-0.09408 -0.89856,-0.09408c-3.17568,0 -5.76,2.58432 -5.76,5.76c0,3.17568 2.58432,5.76 5.76,5.76h14.4c0.52992,0 0.96,0.43008 0.96,0.96c0,0.52992 -0.43008,0.96 -0.96,0.96h-14.4c-4.23552,0 -7.68,-3.44448 -7.68,-7.68c0,-4.23552 3.44448,-7.68 7.68,-7.68c0.11328,0 0.22272,0.00384 0.33408,0.01152c0.79488,-2.27712 2.95104,-3.85152 5.42592,-3.85152c0.67008,0 1.32288,0.11712 1.94112,0.3456c0.3168,-4.47936 4.0608,-8.0256 8.61888,-8.0256c3.51552,0 6.65472,2.16384 7.97376,5.32608c1.3056,-0.95616 2.88384,-1.48608 4.50624,-1.48608c4.23552,0 7.68,3.44448 7.68,7.68c0,0.09216 -0.00192,0.1824 -0.00768,0.27264c3.34656,0.86016 5.76768,3.89184 5.76768,7.40736c0,4.23552 -3.44448,7.68 -7.68,7.68z"/></g><g fill="#472b29"><path d="M68.16,149.76c-0.30528,0 -1.61472,0 -1.92,0c-0.52992,0 -0.96,0.43008 -0.96,0.96c0,0.52992 0.43008,0.96 0.96,0.96c0.30528,0 1.61472,0 1.92,0c0.52992,0 0.96,-0.43008 0.96,-0.96c0,-0.52992 -0.43008,-0.96 -0.96,-0.96z"/></g></g></g></svg>
