<?xml version="1.0"?>
<svg xmlns="http://www.w3.org/2000/svg" xmlns:xlink="http://www.w3.org/1999/xlink" version="1.1" viewBox="0 0 192 192" width="64px" height="64px"><g fill="none" fill-rule="nonzero" stroke="none" stroke-width="1" stroke-linecap="butt" stroke-linejoin="miter" stroke-miterlimit="10" stroke-dasharray="" stroke-dashoffset="0" font-family="none" font-weight="none" font-size="none" text-anchor="none" style="mix-blend-mode: normal"><path d="M0,192v-192h192v192z" fill="none"/><g><g id="surface1"><path d="M21,63h156v102h-156z" fill="#7ac4eb"/><path d="M21,63h156v12h-156z" fill="#9999e7"/><path d="M33,150h132c6.63281,0 12,5.36719 12,12v3h-156v-3c0,-6.63281 5.36719,-12 12,-12z" fill="#9999e7"/><path d="M15,33h168v30h-168z" fill="#7ac4eb"/><path d="M78,81h42c4.96875,0 9,4.03125 9,9c0,4.96875 -4.03125,9 -9,9h-42c-4.96875,0 -9,-4.03125 -9,-9c0,-4.96875 4.03125,-9 9,-9z" fill="#8686ba"/><path d="M15,33h168v3c0,4.96875 -4.03125,9 -9,9h-150c-4.96875,0 -9,-4.03125 -9,-9z" fill="#fff7f0"/><path d="M177,30.17578h-156c-4.96875,0 -9,4.03125 -9,9v18c0,3.82031 2.40234,7.21875 6,8.49609v93.50391c0,4.98047 4.03125,9 9,9h144c4.96875,0 9,-4.01953 9,-9v-93.50391c3.59766,-1.27734 6,-4.67578 6,-8.49609v-18c0,-4.96875 -4.03125,-9 -9,-9zM180,57.17578c0,1.66406 -1.34766,3 -3,3h-12c-1.65234,0 -3,1.34766 -3,3c0,1.66406 1.34766,3 3,3h9v93c0,1.66406 -1.34766,3 -3,3h-144c-1.65234,0 -3,-1.33594 -3,-3v-93h105c1.65234,0 3,-1.33594 3,-3c0,-1.65234 -1.34766,-3 -3,-3h-108c-1.65234,0 -3,-1.33594 -3,-3v-18c0,-1.65234 1.34766,-3 3,-3h156c1.65234,0 3,1.34766 3,3z" fill="#4b52ba"/><path d="M54,144.17578c-1.65234,0 -3,1.34766 -3,3v6c0,1.66406 1.34766,3 3,3c1.65234,0 3,-1.33594 3,-3v-6c0,-1.65234 -1.34766,-3 -3,-3z" fill="#4b52ba"/><path d="M39,144.17578c-1.65234,0 -3,1.34766 -3,3v6c0,1.66406 1.34766,3 3,3c1.65234,0 3,-1.33594 3,-3v-6c0,-1.65234 -1.34766,-3 -3,-3z" fill="#4b52ba"/><path d="M69,144.17578c-1.65234,0 -3,1.34766 -3,3v6c0,1.66406 1.34766,3 3,3c1.65234,0 3,-1.33594 3,-3v-6c0,-1.65234 -1.34766,-3 -3,-3z" fill="#4b52ba"/><path d="M84,144.17578c-1.65234,0 -3,1.34766 -3,3v6c0,1.66406 1.34766,3 3,3c1.65234,0 3,-1.33594 3,-3v-6c0,-1.65234 -1.34766,-3 -3,-3z" fill="#4b52ba"/><path d="M99,144.17578c-1.65234,0 -3,1.34766 -3,3v6c0,1.66406 1.34766,3 3,3c1.65234,0 3,-1.33594 3,-3v-6c0,-1.65234 -1.34766,-3 -3,-3z" fill="#4b52ba"/><path d="M114,144.17578c-1.65234,0 -3,1.34766 -3,3v6c0,1.66406 1.34766,3 3,3c1.65234,0 3,-1.33594 3,-3v-6c0,-1.65234 -1.34766,-3 -3,-3z" fill="#4b52ba"/><path d="M129,144.17578c-1.65234,0 -3,1.34766 -3,3v6c0,1.66406 1.34766,3 3,3c1.65234,0 3,-1.33594 3,-3v-6c0,-1.65234 -1.34766,-3 -3,-3z" fill="#4b52ba"/><path d="M144,144.17578c-1.65234,0 -3,1.34766 -3,3v6c0,1.66406 1.34766,3 3,3c1.65234,0 3,-1.33594 3,-3v-6c0,-1.65234 -1.34766,-3 -3,-3z" fill="#4b52ba"/><path d="M159,144.17578c-1.65234,0 -3,1.34766 -3,3v6c0,1.66406 1.34766,3 3,3c1.65234,0 3,-1.33594 3,-3v-6c0,-1.65234 -1.34766,-3 -3,-3z" fill="#4b52ba"/><path d="M153,60.17578h-12c-1.65234,0 -3,1.34766 -3,3c0,1.66406 1.34766,3 3,3h12c1.65234,0 3,-1.33594 3,-3c0,-1.65234 -1.34766,-3 -3,-3z" fill="#4b52ba"/><path d="M120,78h-42c-6.63281,0 -12,5.36719 -12,12c0,6.63281 5.36719,12 12,12h42c6.63281,0 12,-5.36719 12,-12c0,-6.63281 -5.36719,-12 -12,-12zM120,96h-42c-3.31641,0 -6,-2.68359 -6,-6c0,-3.31641 2.68359,-6 6,-6h42c3.31641,0 6,2.68359 6,6c0,3.31641 -2.68359,6 -6,6z" fill="#4b52ba"/></g></g></g></svg>
