<?xml version="1.0"?>
<svg xmlns="http://www.w3.org/2000/svg" xmlns:xlink="http://www.w3.org/1999/xlink" version="1.1" viewBox="0 0 192 192" width="64px" height="64px"><g fill="none" fill-rule="nonzero" stroke="none" stroke-width="1" stroke-linecap="butt" stroke-linejoin="miter" stroke-miterlimit="10" stroke-dasharray="" stroke-dashoffset="0" font-family="none" font-weight="none" font-size="none" text-anchor="none" style="mix-blend-mode: normal"><path d="M0,192v-192h192v192z" fill="none"/><g fill="#666666"><g id="surface1"><path d="M78.21094,12c-3.01172,0 -5.82422,1.5 -7.48828,4.00781l-9.32812,13.99219h-52.39453c-4.96875,0 -9,4.03125 -9,9v29.40234c0,4.875 2.32031,9.19922 6,11.95313v75.64453c0,6.63281 5.36719,12 12,12h156c6.63281,0 12,-5.36719 12,-12v-75.64453c3.67969,-2.7539 6,-7.07812 6,-11.95312v-29.40234c0,-4.96875 -4.03125,-9 -9,-9h-52.39453l-9.32812,-13.99219c-1.66406,-2.50781 -4.47656,-4.00781 -7.48828,-4.00781zM78.21094,18h35.57813c1.00781,0 1.93359,0.50391 2.49609,1.33594l7.10156,10.66406h-54.77344l7.10156,-10.66406c0.5625,-0.83203 1.48828,-1.33594 2.4961,-1.33594zM9,36h174c1.65234,0 3,1.34766 3,3v3c-1.65234,0 -3,1.33594 -3,3v6c0,1.66406 1.34766,3 3,3v14.40234c0,4.24219 -2.88281,7.85156 -7.01953,8.78906l-70.98047,16.01953v-0.21094c0,-3.30469 -2.69531,-6 -6,-6h-12c-3.30469,0 -6,2.69531 -6,6v0.21094l-70.98047,-16.01953c-4.13672,-0.9375 -7.01953,-4.54687 -7.01953,-8.78906v-14.40234c1.65234,0 3,-1.33594 3,-3v-6c0,-1.66406 -1.34766,-3 -3,-3v-3c0,-1.65234 1.34766,-3 3,-3zM21,42c-1.65234,0 -3,1.33594 -3,3v6c0,1.66406 1.34766,3 3,3c1.65234,0 3,-1.33594 3,-3v-6c0,-1.66406 -1.34766,-3 -3,-3zM36,42c-1.65234,0 -3,1.33594 -3,3v6c0,1.66406 1.34766,3 3,3c1.65234,0 3,-1.33594 3,-3v-6c0,-1.66406 -1.34766,-3 -3,-3zM51,42c-1.65234,0 -3,1.33594 -3,3v6c0,1.66406 1.34766,3 3,3c1.65234,0 3,-1.33594 3,-3v-6c0,-1.66406 -1.34766,-3 -3,-3zM66,42c-1.65234,0 -3,1.33594 -3,3v6c0,1.66406 1.34766,3 3,3c1.65234,0 3,-1.33594 3,-3v-6c0,-1.66406 -1.34766,-3 -3,-3zM81,42c-1.65234,0 -3,1.33594 -3,3v6c0,1.66406 1.34766,3 3,3c1.65234,0 3,-1.33594 3,-3v-6c0,-1.66406 -1.34766,-3 -3,-3zM96,42c-1.65234,0 -3,1.33594 -3,3v6c0,1.66406 1.34766,3 3,3c1.65234,0 3,-1.33594 3,-3v-6c0,-1.66406 -1.34766,-3 -3,-3zM111,42c-1.65234,0 -3,1.33594 -3,3v6c0,1.66406 1.34766,3 3,3c1.65234,0 3,-1.33594 3,-3v-6c0,-1.66406 -1.34766,-3 -3,-3zM126,42c-1.65234,0 -3,1.33594 -3,3v6c0,1.66406 1.34766,3 3,3c1.65234,0 3,-1.33594 3,-3v-6c0,-1.66406 -1.34766,-3 -3,-3zM141,42c-1.65234,0 -3,1.33594 -3,3v6c0,1.66406 1.34766,3 3,3c1.65234,0 3,-1.33594 3,-3v-6c0,-1.66406 -1.34766,-3 -3,-3zM156,42c-1.65234,0 -3,1.33594 -3,3v6c0,1.66406 1.34766,3 3,3c1.65234,0 3,-1.33594 3,-3v-6c0,-1.66406 -1.34766,-3 -3,-3zM171,42c-1.65234,0 -3,1.33594 -3,3v6c0,1.66406 1.34766,3 3,3c1.65234,0 3,-1.33594 3,-3v-6c0,-1.66406 -1.34766,-3 -3,-3zM180,83.10938v72.89063c0,3.31641 -2.68359,6 -6,6h-156c-3.31641,0 -6,-2.68359 -6,-6v-72.89062l72,16.26563v11.625c0,3.31641 2.68359,6 6,6h12c3.31641,0 6,-2.68359 6,-6v-11.63672zM90,93h12v18h-12zM21,144c-1.65234,0 -3,1.33594 -3,3c0,1.66406 1.34766,3 3,3h126c1.65234,0 3,-1.33594 3,-3c0,-1.66406 -1.34766,-3 -3,-3zM159,144c-1.65234,0 -3,1.33594 -3,3c0,1.66406 1.34766,3 3,3h12c1.65234,0 3,-1.33594 3,-3c0,-1.66406 -1.34766,-3 -3,-3z"/></g></g></g></svg>
