<?xml version="1.0" standalone="no"?>
<!DOCTYPE svg PUBLIC "-//W3C//DTD SVG 20010904//EN"
 "http://www.w3.org/TR/2001/REC-SVG-20010904/DTD/svg10.dtd">
<svg version="1.0" xmlns="http://www.w3.org/2000/svg"
 width="1842.000000pt" height="582.000000pt" viewBox="0 0 1842.000000 582.000000"
 preserveAspectRatio="xMidYMid meet">
<metadata>
Created by potrace 1.15, written by Peter Selinger 2001-2017
</metadata>
<g transform="translate(0.000000,582.000000) scale(0.100000,-0.100000)"
fill="#000000" stroke="none">
<path d="M6913 1525 c-146 -45 -222 -155 -211 -304 8 -114 80 -203 190 -236
60 -17 200 -20 262 -4 l44 11 -11 33 c-9 31 -12 33 -36 23 -45 -18 -171 -15
-223 5 -156 60 -181 283 -43 379 65 45 191 58 271 28 17 -7 22 -3 32 22 10 28
9 30 -23 44 -43 18 -194 18 -252 -1z"/>
<path d="M7884 1519 c-104 -40 -165 -128 -172 -249 -10 -184 103 -300 292
-300 89 0 132 12 192 53 69 47 106 118 112 216 7 139 -58 245 -175 285 -65 22
-185 20 -249 -5z m220 -64 c80 -38 127 -149 106 -251 -33 -157 -200 -223 -326
-128 -47 35 -78 106 -78 179 0 170 150 270 298 200z"/>
<path d="M11107 1525 c-81 -28 -121 -99 -98 -175 15 -51 54 -80 159 -120 88
-34 122 -64 122 -110 0 -34 -44 -75 -91 -85 -37 -8 -111 2 -157 21 -32 13 -33
12 -43 -13 -5 -15 -8 -32 -5 -39 8 -20 106 -37 187 -32 129 6 199 62 199 157
0 70 -28 107 -108 142 -129 58 -157 74 -170 101 -14 30 -4 61 27 85 36 27 121
26 195 -3 7 -3 16 3 19 13 2 10 8 25 11 34 15 35 -166 53 -247 24z"/>
<path d="M12907 1525 c-81 -28 -121 -99 -98 -175 15 -51 54 -80 159 -120 88
-34 122 -64 122 -110 0 -34 -44 -75 -91 -85 -37 -8 -111 2 -157 21 -32 13 -33
12 -43 -13 -5 -15 -8 -32 -5 -39 8 -20 106 -37 187 -32 129 6 199 62 199 157
0 70 -28 107 -108 142 -129 58 -157 74 -170 101 -14 30 -4 61 27 85 36 27 121
26 195 -3 7 -3 16 3 19 13 2 10 8 25 11 34 15 35 -166 53 -247 24z"/>
<path d="M13377 1525 c-81 -28 -121 -99 -98 -175 15 -51 54 -80 159 -120 88
-34 122 -64 122 -110 0 -34 -44 -75 -91 -85 -37 -8 -111 2 -157 21 -32 13 -33
12 -43 -13 -5 -15 -8 -32 -5 -39 8 -20 106 -37 187 -32 129 6 199 62 199 157
0 70 -28 107 -108 142 -129 58 -157 74 -170 101 -14 30 -4 61 27 85 36 27 121
26 195 -3 7 -3 16 3 19 13 2 10 8 25 11 34 15 35 -166 53 -247 24z"/>
<path d="M16494 1519 c-104 -40 -165 -128 -172 -249 -10 -184 103 -300 292
-300 89 0 132 12 192 53 69 47 106 118 112 216 7 139 -58 245 -175 285 -65 22
-185 20 -249 -5z m220 -64 c80 -38 127 -149 106 -251 -33 -157 -200 -223 -326
-128 -47 35 -78 106 -78 179 0 170 150 270 298 200z"/>
<path d="M7300 1255 l0 -275 180 0 180 0 0 30 0 30 -135 0 -135 0 0 245 0 245
-45 0 -45 0 0 -275z"/>
<path d="M8410 1328 c0 -227 8 -259 69 -311 45 -37 96 -50 188 -46 67 3 87 9
128 34 83 51 89 75 93 318 l3 207 -45 0 -45 0 -3 -203 -3 -204 -28 -36 c-45
-60 -146 -74 -207 -29 -53 39 -60 70 -60 280 l0 192 -45 0 -45 0 0 -202z"/>
<path d="M9043 1523 c-10 -3 -13 -68 -13 -275 l0 -270 153 4 c171 5 220 18
289 77 87 74 115 218 64 327 -49 105 -144 144 -349 143 -73 0 -138 -3 -144 -6z
m286 -70 c181 -58 189 -308 11 -386 -28 -13 -76 -22 -132 -25 l-88 -5 0 217 0
216 79 0 c46 0 100 -7 130 -17z"/>
<path d="M9887 1524 c-4 -4 -7 -129 -7 -277 l0 -269 138 4 c159 4 217 22 252
80 31 51 27 118 -9 157 -16 17 -44 36 -61 43 l-32 11 32 15 c64 31 88 108 51
168 -33 54 -79 69 -226 72 -72 2 -134 0 -138 -4z m238 -69 c68 -28 65 -102 -5
-137 -21 -11 -58 -18 -92 -18 l-58 0 0 85 0 85 60 0 c33 0 76 -7 95 -15z m19
-243 c111 -65 42 -172 -111 -172 l-63 0 0 101 0 102 72 -7 c40 -4 86 -14 102
-24z"/>
<path d="M10400 1328 c0 -227 8 -259 69 -311 45 -37 96 -50 188 -46 67 3 87 9
128 34 83 51 89 75 93 318 l3 207 -45 0 -45 0 -3 -203 -3 -204 -28 -36 c-45
-60 -146 -74 -207 -29 -53 39 -60 70 -60 280 l0 192 -45 0 -45 0 0 -202z"/>
<path d="M11490 1255 l0 -275 45 0 45 0 0 275 0 275 -45 0 -45 0 0 -275z"/>
<path d="M11720 1255 l0 -275 40 0 40 0 0 222 0 222 33 -51 c17 -28 88 -128
157 -222 l125 -170 48 -1 47 0 0 275 0 275 -40 0 -40 0 0 -217 0 -216 -38 59
c-21 32 -91 130 -156 217 l-117 157 -49 0 -50 0 0 -275z"/>
<path d="M12350 1255 l0 -275 185 0 185 0 0 30 0 30 -140 0 -140 0 0 100 0
100 125 0 125 0 0 30 0 30 -125 0 -125 0 0 85 0 85 130 0 130 0 0 30 0 30
-175 0 -175 0 0 -275z"/>
<path d="M13970 1255 l0 -275 40 0 40 0 0 222 0 222 33 -51 c17 -28 88 -128
157 -222 l125 -170 48 -1 47 0 0 275 0 275 -40 0 -40 0 0 -217 0 -216 -38 59
c-21 32 -91 130 -156 217 l-117 157 -49 0 -50 0 0 -275z"/>
<path d="M14600 1255 l0 -275 185 0 185 0 0 30 0 30 -140 0 -140 0 0 100 0
100 125 0 125 0 0 30 0 30 -125 0 -125 0 0 85 0 85 130 0 130 0 0 30 0 30
-175 0 -175 0 0 -275z"/>
<path d="M14990 1500 l0 -30 100 0 100 0 0 -245 0 -245 45 0 45 0 0 245 0 245
100 0 100 0 0 30 0 30 -245 0 -245 0 0 -30z"/>
<path d="M15490 1523 c0 -5 36 -128 79 -273 l79 -265 49 -3 49 -3 63 198 c83
264 79 252 80 228 1 -10 27 -111 58 -223 l57 -203 49 3 50 3 89 265 c48 146
88 268 88 272 0 5 -20 8 -45 8 l-44 0 -45 -142 c-25 -79 -54 -176 -65 -217
-11 -41 -22 -76 -25 -78 -2 -2 -7 13 -11 34 -3 21 -29 120 -58 221 l-51 183
-49 -3 -50 -3 -58 -189 c-32 -105 -62 -205 -65 -224 -6 -30 -16 -2 -68 189
l-61 224 -48 3 c-26 2 -47 -1 -47 -5z"/>
<path d="M17027 1524 c-4 -4 -7 -128 -7 -276 l0 -268 45 0 45 0 0 115 0 115
58 0 c93 0 115 -20 149 -132 l29 -93 50 -3 50 -3 -33 103 c-25 76 -41 110 -63
130 -17 15 -30 29 -30 31 0 1 15 10 33 20 44 24 67 65 67 119 0 55 -27 99 -76
124 -31 15 -66 20 -174 22 -74 2 -139 0 -143 -4z m237 -64 c40 -15 66 -47 66
-81 0 -67 -43 -97 -151 -106 l-69 -6 0 102 0 101 64 0 c36 0 76 -4 90 -10z"/>
<path d="M17540 1255 l0 -275 45 0 45 0 0 103 c0 100 1 104 28 130 l27 26 103
-129 103 -130 55 0 56 0 -34 42 c-18 23 -74 94 -125 157 l-92 116 117 118 117
117 -61 0 -60 0 -117 -125 -117 -125 0 125 0 125 -45 0 -45 0 0 -275z"/>
</g>
</svg>
