<?xml version="1.0"?>
<svg xmlns="http://www.w3.org/2000/svg" xmlns:xlink="http://www.w3.org/1999/xlink" version="1.1" viewBox="0 0 192 192" width="64px" height="64px"><g fill="none" fill-rule="nonzero" stroke="none" stroke-width="1" stroke-linecap="butt" stroke-linejoin="miter" stroke-miterlimit="10" stroke-dasharray="" stroke-dashoffset="0" font-family="none" font-weight="none" font-size="none" text-anchor="none" style="mix-blend-mode: normal"><path d="M0,192v-192h192v192z" fill="none"/><g id="&#xD0;&#xA1;&#xD0;&#xBB;&#xD0;&#xBE;&#xD0;&#xB9;_1"><path d="M96,21c41.4,0 75,33.6 75,75c0,41.4 -33.6,75 -75,75c-41.4,0 -75,-33.6 -75,-75c0,-41.4 33.6,-75 75,-75" fill="#ffffff"/><path d="M96,21c-0.3,0 -0.6,0 -0.9,0c-2.25,0 -4.65,0.15 -6.9,0.45c-0.45,0 -1.05,0.15 -1.5,0.15c36.9,4.65 65.55,36.15 65.55,74.4c0,38.25 -28.65,69.75 -65.55,74.4c0.75,0.15 1.5,0.15 2.4,0.3c1.8,0.15 3.75,0.3 5.55,0.3c0.45,0 0.9,0 1.35,0c41.4,0 75,-33.6 75,-75c0,-41.4 -33.6,-75 -75,-75" fill="#b6cfeb"/><path d="M96,175.5c-43.8,0 -79.5,-35.7 -79.5,-79.5c0,-43.8 35.7,-79.5 79.5,-79.5c43.8,0 79.5,35.7 79.5,79.5c0,43.8 -35.7,79.5 -79.5,79.5zM96,25.5c-38.85,0 -70.5,31.65 -70.5,70.5c0,38.85 31.65,70.5 70.5,70.5c38.85,0 70.5,-31.65 70.5,-70.5c0,-38.85 -31.65,-70.5 -70.5,-70.5z" fill="#454b54"/><path d="M96,64.05c-2.55,0 -4.5,1.95 -4.5,4.5c0,2.55 1.95,4.5 4.5,4.5c2.55,0 4.5,-1.95 4.5,-4.5c0,-2.55 -1.95,-4.5 -4.5,-4.5z" fill="#454b54"/><path d="M96,139.5c-2.55,0 -4.5,-1.95 -4.5,-4.5v-41.55c0,-2.55 1.95,-4.5 4.5,-4.5c2.55,0 4.5,1.95 4.5,4.5v41.55c0,2.55 -1.95,4.5 -4.5,4.5z" fill="#454b54"/></g></g></svg>
