<?xml version="1.0"?>
<svg xmlns="http://www.w3.org/2000/svg" xmlns:xlink="http://www.w3.org/1999/xlink" version="1.1" viewBox="0 0 192 192" width="64px" height="64px"><g fill="none" fill-rule="nonzero" stroke="none" stroke-width="1" stroke-linecap="butt" stroke-linejoin="miter" stroke-miterlimit="10" stroke-dasharray="" stroke-dashoffset="0" font-family="none" font-weight="none" font-size="none" text-anchor="none" style="mix-blend-mode: normal"><path d="M0,192v-192h192v192z" fill="none"/><g fill="#666666"><g id="surface1"><path d="M93,6c-47.97656,0 -87,39.02344 -87,87c0,47.97656 39.02344,87 87,87c47.97656,0 87,-39.02344 87,-87c0,-47.97656 -39.02344,-87 -87,-87zM93,12c44.66016,0 81,36.33984 81,81c0,44.66016 -36.33984,81 -81,81c-44.66016,0 -81,-36.33984 -81,-81c0,-44.66016 36.33984,-81 81,-81zM93,24c-38.05078,0 -69,30.94922 -69,69c0,38.05078 30.94922,69 69,69c38.05078,0 69,-30.94922 69,-69c0,-21.31641 -9.62109,-41.09766 -26.40234,-54.28125c-1.30078,-1.01953 -3.1875,-0.80859 -4.20703,0.50391c-1.01953,1.30078 -0.79687,3.1875 0.50391,4.21875c15.31641,12.03516 24.10547,30.10547 24.10547,49.55859c0,34.73438 -28.26562,63 -63,63c-34.73437,0 -63,-28.26562 -63,-63c0,-34.73437 28.26563,-63 63,-63c3.08203,0 6.17578,0.22266 9.1875,0.66797c1.65234,0.2461 3.17578,-0.89062 3.41016,-2.53125c0.23438,-1.64062 -0.89062,-3.16406 -2.53125,-3.41015c-3.30469,-0.48047 -6.69141,-0.72656 -10.06641,-0.72656zM115.59375,28.03125c-1.16016,0.05859 -2.23828,0.79688 -2.67187,1.96875c-0.5625,1.54688 0.23438,3.26953 1.79297,3.84375c2.34375,0.85547 4.67578,1.88672 6.92578,3.03516c0.44531,0.22266 0.91406,0.32813 1.37109,0.32813c1.08985,0 2.14453,-0.59766 2.67188,-1.64062c0.75,-1.47656 0.16406,-3.28125 -1.3125,-4.03125c-2.46094,-1.26562 -5.01562,-2.37891 -7.59375,-3.32812c-0.38672,-0.14062 -0.78515,-0.19922 -1.18359,-0.17578zM93,54c-3.31641,0 -6,2.68359 -6,6c0,3.31641 2.68359,6 6,6c3.31641,0 6,-2.68359 6,-6c0,-3.31641 -2.68359,-6 -6,-6zM87.11719,72c-1.44141,0 -2.88281,1.19531 -2.88281,3c0,1.80469 1.07813,3 2.88281,3h2.88281v42h-5.88281c-1.44141,0 -2.88281,1.19531 -2.88281,3c0,1.80469 1.07813,3 2.88281,3h17.88281c1.80469,0 2.88281,-1.19531 2.88281,-3c0,-1.80469 -1.07812,-3 -2.88281,-3h-6v-42h3c1.80469,0 2.88281,-1.19531 2.88281,-3c0,-1.80469 -1.07812,-3 -2.88281,-3zM39,90c-1.65234,0 -3,1.34766 -3,3v6c0,1.65234 1.34766,3 3,3c1.65234,0 3,-1.34766 3,-3v-6c0,-1.65234 -1.34766,-3 -3,-3zM54,90c-1.65234,0 -3,1.34766 -3,3v6c0,1.65234 1.34766,3 3,3c1.65234,0 3,-1.34766 3,-3v-6c0,-1.65234 -1.34766,-3 -3,-3zM69,90c-1.65234,0 -3,1.34766 -3,3v6c0,1.65234 1.34766,3 3,3c1.65234,0 3,-1.34766 3,-3v-6c0,-1.65234 -1.34766,-3 -3,-3zM117,90c-1.65234,0 -3,1.34766 -3,3v6c0,1.65234 1.34766,3 3,3c1.65234,0 3,-1.34766 3,-3v-6c0,-1.65234 -1.34766,-3 -3,-3zM132,90c-1.65234,0 -3,1.34766 -3,3v6c0,1.65234 1.34766,3 3,3c1.65234,0 3,-1.34766 3,-3v-6c0,-1.65234 -1.34766,-3 -3,-3zM147,90c-1.65234,0 -3,1.34766 -3,3v6c0,1.65234 1.34766,3 3,3c1.65234,0 3,-1.34766 3,-3v-6c0,-1.65234 -1.34766,-3 -3,-3z"/></g></g></g></svg>
