<?xml version="1.0"?>
<svg xmlns="http://www.w3.org/2000/svg" xmlns:xlink="http://www.w3.org/1999/xlink" version="1.1" viewBox="0 0 192 192" width="64px" height="64px"><g fill="none" fill-rule="nonzero" stroke="none" stroke-width="1" stroke-linecap="butt" stroke-linejoin="miter" stroke-miterlimit="10" stroke-dasharray="" stroke-dashoffset="0" font-family="none" font-weight="none" font-size="none" text-anchor="none" style="mix-blend-mode: normal"><path d="M0,192v-192h192v192z" fill="none"/><g><g id="surface1"><path d="M145.55859,69.44531c0.2461,-28.99219 -23.07422,-52.6875 -52.0664,-52.9336c-28.99219,-0.23437 -52.6875,23.07422 -52.9336,52.06641c-0.15234,18.42188 11.09766,35.13281 25.44141,48.86719v5.55469c0,6.63281 5.36719,12 12,12h30c6.63281,0 12,-5.36719 12,-12v-5.73047c14.25,-13.38281 25.40625,-29.78906 25.55859,-47.82422z" fill="#ffffff"/><path d="M51.53906,45.15234c1.47656,1.5 3.51563,2.29688 5.61328,2.21485c2.09766,-0.09375 4.06641,-1.07812 5.40235,-2.69531c7.35938,-9.19922 18.49219,-14.57812 30.28125,-14.625c11.78906,-0.04687 22.96875,5.23828 30.39844,14.37891c1.34766,1.61719 3.30469,2.57813 5.39063,2.66016c2.09766,0.09375 4.125,-0.71485 5.58984,-2.20312c2.73047,-2.75391 2.92969,-7.125 0.45703,-10.11328c-10.30078,-12.52734 -25.6875,-19.75781 -41.90625,-19.71094c-16.21875,0.0586 -31.55859,7.40625 -41.76562,20.01563c-2.44922,2.97656 -2.23828,7.33594 0.48047,10.07813z" fill="#ffffff"/><path d="M99,180h-12v-9h12z" fill="#acb7d0"/><path d="M99,171h-12c-9.9375,0 -18,-8.0625 -18,-18v-18h48v18c0,9.9375 -8.0625,18 -18,18z" fill="#c2cde7"/><path d="M24,69c0,-1.65234 -1.34766,-3 -3,-3h-18c-1.65234,0 -3,1.34766 -3,3c0,1.65234 1.34766,3 3,3h18c1.65234,0 3,-1.34766 3,-3z" fill="#8d6c9f"/><path d="M183,66h-18c-1.65234,0 -3,1.34766 -3,3c0,1.65234 1.34766,3 3,3h18c1.65234,0 3,-1.34766 3,-3c0,-1.65234 -1.34766,-3 -3,-3z" fill="#8d6c9f"/><path d="M25.11328,93.17578l-11.13281,4.5c-1.05469,0.36328 -1.82812,1.27734 -2.0039,2.37891c-0.17578,1.10156 0.26953,2.20313 1.16015,2.87109c0.89063,0.66797 2.08594,0.78516 3.09375,0.30469l11.13281,-4.5c1.42969,-0.67969 2.07422,-2.36719 1.47656,-3.83203c-0.58594,-1.47656 -2.22656,-2.22656 -3.72656,-1.72266z" fill="#8d6c9f"/><path d="M159.75,45c0.375,0 0.76172,-0.07031 1.11328,-0.21094l11.12109,-4.5c1.44141,-0.67969 2.08594,-2.36719 1.48828,-3.83203c-0.59766,-1.46484 -2.22656,-2.22656 -3.73828,-1.72266l-11.12109,4.5c-1.3125,0.5625 -2.05078,1.95703 -1.76953,3.35156c0.26953,1.39453 1.48828,2.40234 2.90625,2.41406z" fill="#8d6c9f"/><path d="M27.36328,39.23438l-11.13281,-4.5c-1.00781,-0.48047 -2.20312,-0.36328 -3.09375,0.30469c-0.89062,0.66797 -1.33594,1.78125 -1.16015,2.88281c0.17578,1.10156 0.94922,2.01563 2.0039,2.36719l11.13281,4.5c1.5,0.5039 3.14063,-0.2461 3.72656,-1.71094c0.59766,-1.47656 -0.04687,-3.15234 -1.47656,-3.84375z" fill="#8d6c9f"/><path d="M172.01953,97.67578l-11.13281,-4.5c-1.00781,-0.48047 -2.1914,-0.36328 -3.08203,0.30469c-0.90235,0.66797 -1.34766,1.78125 -1.17187,2.88281c0.17578,1.10156 0.94922,2.01563 2.0039,2.36719l11.13281,4.5c1.5,0.50391 3.14063,-0.24609 3.73828,-1.72265c0.59765,-1.46485 -0.0586,-3.14062 -1.48828,-3.83203z" fill="#8d6c9f"/><path d="M102.86719,78.86719l-12,12c-0.5625,0.57422 -0.86719,1.33594 -0.86719,2.13281v18c0,1.65234 1.34766,3 3,3c1.65234,0 3,-1.34766 3,-3v-16.76953l11.13281,-11.13281c1.01953,-1.18359 0.94922,-2.96484 -0.16406,-4.06641c-1.10156,-1.11328 -2.88281,-1.18359 -4.06641,-0.16406z" fill="#8d6c9f"/><path d="M93,12c-31.47656,0 -57,25.52344 -57,57c0,15 8.34375,26.07422 16.40625,36.84375c6.45703,8.63672 12.53906,16.82813 13.59375,26.15625v21c0.01172,10.42969 7.67578,19.26563 18,20.76563v3.23438c0,3.31641 2.68359,6 6,6h6c3.31641,0 6,-2.68359 6,-6v-3.23437c10.32422,-1.5 17.98828,-10.33594 18,-20.76562v-18.30469c0,-10.5 6.65625,-19.40625 13.71094,-28.85156c8.0039,-10.76953 16.28906,-21.84375 16.28906,-36.84375c0,-31.47656 -25.52344,-57 -57,-57zM72,138h42v3.36328l-42,5.25zM96,177h-6v-3h6zM99,168h-12c-8.28516,0 -15,-6.71484 -15,-15v-0.36328l42,-5.25v5.61328c0,0 0,0.23438 0,0.36328l-30.51562,3.80859c-1.65234,0.09375 -2.91797,1.52344 -2.8125,3.17578c0.09375,1.66406 1.52344,2.91797 3.17578,2.82422h0.38672l28.17188,-3.51562c-2.51953,5.09766 -7.71094,8.33203 -13.40625,8.34375zM129,102.26953c-6.71484,9 -13.67578,18.38672 -14.76562,29.55469h-18.23437v-8.82422c0,-1.65234 -1.34766,-3 -3,-3c-1.65234,0 -3,1.34766 -3,3v8.82422h-18c-1.07812,-11.1914 -8.07422,-20.51953 -15,-29.58984c-7.26562,-9.98437 -15,-20.30859 -15,-33.23437c0,-28.17187 22.82813,-51 51,-51c28.17188,0 51,22.82813 51,51c0,12.92578 -7.67578,23.28516 -15,33.26953z" fill="#8d6c9f"/><path d="M89.13281,84.86719l-6,-6c-1.19531,-1.01953 -2.96485,-0.94922 -4.07812,0.16406c-1.10156,1.10156 -1.17187,2.88281 -0.15235,4.06641l6,6c1.1836,1.01953 2.96485,0.94922 4.06641,-0.15234c1.11328,-1.11328 1.18359,-2.88281 0.16406,-4.07812z" fill="#8d6c9f"/><path d="M114.69141,33c-1.38281,-0.57422 -2.97656,-0.03516 -3.73828,1.25391c-0.75,1.30078 -0.43359,2.95313 0.73828,3.87891c2.48438,1.5 4.78125,3.30469 6.84375,5.36719c1.19531,0.84375 2.82422,0.70313 3.85547,-0.32812c1.03125,-1.04297 1.17188,-2.68359 0.30469,-3.86719c-2.40235,-2.42578 -5.08594,-4.53516 -8.00391,-6.30469z" fill="#8d6c9f"/><path d="M99.53906,33.59766c1.65234,0.30469 3.24609,-0.79687 3.53906,-2.46094c0.30469,-1.65234 -0.79687,-3.23437 -2.46094,-3.53906c-10.65235,-1.95703 -21.65625,0.30469 -30.69141,6.30469c-1.40625,0.91406 -1.80469,2.78906 -0.89062,4.19531c0.90234,1.40625 2.78906,1.81641 4.19531,0.90234c7.7461,-5.12109 17.16797,-7.06641 26.3086,-5.40234z" fill="#8d6c9f"/></g></g></g></svg>
