<?xml version="1.0"?>
<svg xmlns="http://www.w3.org/2000/svg" xmlns:xlink="http://www.w3.org/1999/xlink" version="1.1" viewBox="0 0 192 192" width="64px" height="64px"><g fill="none" fill-rule="nonzero" stroke="none" stroke-width="1" stroke-linecap="butt" stroke-linejoin="miter" stroke-miterlimit="10" stroke-dasharray="" stroke-dashoffset="0" font-family="none" font-weight="none" font-size="none" text-anchor="none" style="mix-blend-mode: normal"><path d="M0,192v-192h192v192z" fill="none"/><g><g id="Layer_1"><g fill="#3498db"><path d="M24,123l51,-24l21,6l21,-6l51,24c9.201,3.6 15,15.501 15,25.38v22.62c0,3.315 -2.685,6 -6,6h-162c-3.315,0 -6,-2.685 -6,-6v-22.62c0,-9.879 5.799,-21.78 15,-25.38z"/></g><g fill="#d9ddf0"><path d="M96,135c15.48,0 33,-9 42,-27l-21,-9l-21,6l-18,-6l-24,9c8.778,12.228 26.52,27 42,27z"/></g><g fill="#8d6c9f"><path d="M177,180h-162c-4.962,0 -9,-4.038 -9,-9v-23.016c0,-12.687 7.407,-24.393 18.873,-29.823l49.692,-22.254l21.435,3.063l21.435,-3.063l49.632,22.227c11.526,5.457 18.933,17.166 18.933,29.85v23.016c0,4.962 -4.038,9 -9,9zM27.414,123.597c-9.366,4.449 -15.414,14.019 -15.414,24.387v23.016c0,1.653 1.347,3 3,3h162c1.653,0 3,-1.347 3,-3v-23.016c0,-10.38 -6.063,-19.956 -15.441,-24.399l-47.994,-21.492l-20.565,2.937l-20.565,-2.937z"/></g><path d="M134.763,58.836c-0.672,-7.032 -2.58,-14.508 -1.671,-17.844c0.567,-2.082 -1.092,-1.992 7.908,1.008c-12,-30 -27.483,-33 -45,-33c-10.173,0 -17.736,1.752 -24,6c-13.686,0 -15.468,21.615 -15.675,42.402c-3.255,-1.239 -5.325,1.227 -5.325,5.598c0,4.734 3.033,14.793 9,18c4.587,22.383 21,36 36,36c15,0 30,-15 36,-36c6.66,-2.832 9,-13.071 9,-18c0,-5.181 -2.082,-7.404 -6.237,-4.164z" fill="#faefde"/><g fill="#a99c9c"><path d="M78,33c9,6 28.059,9 36,9c11.664,0 12,0 18,0c0,0 6,-3 9,0c-9,-27 -29.826,-33 -39,-33h-12c-4.836,0 -12,3 -15,6c-8.415,-2.688 -18,7.476 -18,21v18c9,-3 18,-18 21,-21z"/></g><g fill="#8d6c9f"><g><path d="M83.76,38.64c8.592,4.17 18.018,6.345 27.57,6.36h7.65c1.656,0 3,-1.344 3,-3c0,-1.656 -1.344,-3 -3,-3h-7.65c-8.649,-0.012 -17.181,-1.983 -24.96,-5.76l-4.68,-2.28c-2.715,-1.326 -5.994,-0.426 -7.65,2.1l-4.8,7.29c-0.888,1.398 -0.474,3.252 0.924,4.14c1.365,0.867 3.174,0.495 4.086,-0.84l4.8,-7.29z"/></g><g><path d="M138.84,54.36c-0.423,-0.108 -0.855,-0.168 -1.29,-0.18c-0.516,-3.537 -1.44,-6.999 -2.76,-10.32v-0.33c1.422,0.171 2.814,0.534 4.14,1.08c1.53,0.636 3.285,-0.09 3.921,-1.62c0.237,-0.57 0.291,-1.2 0.159,-1.8c-5.01,-21.96 -21.33,-35.19 -44.01,-35.19h-3c-7.71,0.033 -15.276,2.103 -21.93,6c-11.07,0.42 -18.81,8.28 -20.07,20.7c-0.555,5.595 -0.423,11.238 0.39,16.8c0.162,0.993 0.252,1.995 0.27,3c0,0.561 -0.09,1.119 -0.27,1.68c-0.444,0.012 -0.888,0.072 -1.32,0.18c-4.95,1.32 -7.02,8.55 -4.8,16.83c1.62,6 4.98,10.5 8.64,12c1.869,5.574 4.44,10.884 7.65,15.81l-0.009,0.006c0.912,1.848 3.549,5.034 3.549,5.034c7.38,9.33 17.1,15.96 27.9,15.96c10.752,0 20.433,-6.576 27.801,-15.813c1.104,-1.374 3.639,-5.187 3.639,-5.187c3.177,-4.929 5.718,-10.242 7.56,-15.81c3.69,-1.38 7.05,-6 8.64,-12c2.22,-8.25 0,-15.48 -4.8,-16.83zM137.85,69.75c-1.5,5.55 -4.32,7.86 -5.19,7.86c-1.377,-0.054 -2.616,0.837 -3,2.16c-4.89,17.01 -18.12,34.23 -33.66,34.23c-15.54,0 -28.77,-17.22 -33.84,-34.2c-0.369,-1.269 -1.527,-2.148 -2.85,-2.16h-0.06c-0.87,0 -3.72,-2.34 -5.19,-7.86c-1.47,-5.52 -0.15,-9.27 0.54,-9.45c0.297,0.051 0.573,0.174 0.81,0.36c1.404,0.879 3.255,0.456 4.134,-0.948c0.273,-0.438 0.429,-0.936 0.456,-1.452c0.072,-1.548 0.243,-3.093 0.51,-4.62c0.156,-1.644 0.075,-3.3 -0.24,-4.92c-0.717,-5.121 -0.807,-10.308 -0.27,-15.45c0.93,-9.57 6.57,-15.3 15,-15.3c0.648,0 1.281,-0.21 1.8,-0.6c5.769,-3.561 12.42,-5.43 19.2,-5.4h3c18.21,0 31.35,9.3 36.75,25.74c-2.019,-0.393 -4.11,0.135 -5.7,1.44c-1.728,1.881 -2.079,4.65 -0.87,6.9c1.599,3.882 2.514,8.016 2.7,12.21c0.084,1.656 1.494,2.928 3.147,2.844c0.522,-0.027 1.032,-0.189 1.47,-0.474c0.24,-0.18 0.516,-0.303 0.81,-0.36c0.723,0.24 2.043,3.9 0.543,9.45z"/></g></g><g fill="#8d6c9f"><g><path d="M21,168c-1.656,0 -3,-1.344 -3,-3v-6c0,-1.656 1.344,-3 3,-3c1.656,0 3,1.344 3,3v6c0,1.656 -1.344,3 -3,3z"/></g><g><path d="M111,168c-1.656,0 -3,-1.344 -3,-3v-6c0,-1.656 1.344,-3 3,-3c1.656,0 3,1.344 3,3v6c0,1.656 -1.344,3 -3,3z"/></g><g><path d="M126,168c-1.656,0 -3,-1.344 -3,-3v-6c0,-1.656 1.344,-3 3,-3c1.656,0 3,1.344 3,3v6c0,1.656 -1.344,3 -3,3z"/></g><g><path d="M156,168c-1.656,0 -3,-1.344 -3,-3v-6c0,-1.656 1.344,-3 3,-3c1.656,0 3,1.344 3,3v6c0,1.656 -1.344,3 -3,3z"/></g><g><path d="M171,168c-1.656,0 -3,-1.344 -3,-3v-6c0,-1.656 1.344,-3 3,-3c1.656,0 3,1.344 3,3v6c0,1.656 -1.344,3 -3,3z"/></g><g><path d="M141,168c-1.656,0 -3,-1.344 -3,-3v-6c0,-1.656 1.344,-3 3,-3c1.656,0 3,1.344 3,3v6c0,1.656 -1.344,3 -3,3z"/></g><g><path d="M36,168c-1.656,0 -3,-1.344 -3,-3v-6c0,-1.656 1.344,-3 3,-3c1.656,0 3,1.344 3,3v6c0,1.656 -1.344,3 -3,3z"/></g><g><path d="M51,168c-1.656,0 -3,-1.344 -3,-3v-6c0,-1.656 1.344,-3 3,-3c1.656,0 3,1.344 3,3v6c0,1.656 -1.344,3 -3,3z"/></g><g><path d="M66,168c-1.656,0 -3,-1.344 -3,-3v-6c0,-1.656 1.344,-3 3,-3c1.656,0 3,1.344 3,3v6c0,1.656 -1.344,3 -3,3z"/></g><g><path d="M81,168c-1.656,0 -3,-1.344 -3,-3v-6c0,-1.656 1.344,-3 3,-3c1.656,0 3,1.344 3,3v6c0,1.656 -1.344,3 -3,3z"/></g><g><path d="M96,168c-1.656,0 -3,-1.344 -3,-3v-6c0,-1.656 1.344,-3 3,-3c1.656,0 3,1.344 3,3v6c0,1.656 -1.344,3 -3,3z"/></g></g></g><g id="Layer_2_1_" fill="#000000" font-family="-apple-system, BlinkMacSystemFont, &quot;San Francisco&quot;, HelveticaNeue-Light, &quot;Helvetica Neue Light&quot;, &quot;Helvetica Neue&quot;, &quot;Segoe UI&quot;, &quot;Fira Sans&quot;, Roboto, Oxygen, Ubuntu, &quot;Droid Sans&quot;, Arial, sans-serif" font-weight="400" font-size="16" text-anchor="start" visibility="hidden"/></g></g></svg>
