<?xml version="1.0"?>
<svg xmlns="http://www.w3.org/2000/svg" xmlns:xlink="http://www.w3.org/1999/xlink" version="1.1" viewBox="0 0 192 192" width="64px" height="64px"><g fill="none" fill-rule="nonzero" stroke="none" stroke-width="1" stroke-linecap="butt" stroke-linejoin="miter" stroke-miterlimit="10" stroke-dasharray="" stroke-dashoffset="0" font-family="none" font-weight="none" font-size="none" text-anchor="none" style="mix-blend-mode: normal"><path d="M0,192v-192h192v192z" fill="none"/><g><g id="surface1"><path d="M21,21h150c3.31641,0 6,2.68359 6,6v138c0,3.31641 -2.68359,6 -6,6h-150c-3.31641,0 -6,-2.68359 -6,-6v-138c0,-3.31641 2.68359,-6 6,-6z" fill="#3498db"/><path d="M27,156h138c6.63281,0 12,5.36719 12,12c0,1.65234 -1.34766,3 -3,3h-156c-1.65234,0 -3,-1.34766 -3,-3c0,-6.63281 5.36719,-12 12,-12z" fill="#747eda"/><path d="M171,18h-150c-4.96875,0 -9,4.03125 -9,9v138c0,4.96875 4.03125,9 9,9h150c4.96875,0 9,-4.03125 9,-9v-138c0,-4.96875 -4.03125,-9 -9,-9zM174,165c0,1.65234 -1.34766,3 -3,3h-150c-1.65234,0 -3,-1.34766 -3,-3v-138c0,-1.65234 1.34766,-3 3,-3h150c1.65234,0 3,1.34766 3,3z" fill="#8d6c9f"/><path d="M42,150c-1.65234,0 -3,1.34766 -3,3v6c0,1.65234 1.34766,3 3,3c1.65234,0 3,-1.34766 3,-3v-6c0,-1.65234 -1.34766,-3 -3,-3z" fill="#8d6c9f"/><path d="M27,150c-1.65234,0 -3,1.34766 -3,3v6c0,1.65234 1.34766,3 3,3c1.65234,0 3,-1.34766 3,-3v-6c0,-1.65234 -1.34766,-3 -3,-3z" fill="#8d6c9f"/><path d="M87,150c-1.65234,0 -3,1.34766 -3,3v6c0,1.65234 1.34766,3 3,3c1.65234,0 3,-1.34766 3,-3v-6c0,-1.65234 -1.34766,-3 -3,-3z" fill="#8d6c9f"/><path d="M102,150c-1.65234,0 -3,1.34766 -3,3v6c0,1.65234 1.34766,3 3,3c1.65234,0 3,-1.34766 3,-3v-6c0,-1.65234 -1.34766,-3 -3,-3z" fill="#8d6c9f"/><path d="M117,150c-1.65234,0 -3,1.34766 -3,3v6c0,1.65234 1.34766,3 3,3c1.65234,0 3,-1.34766 3,-3v-6c0,-1.65234 -1.34766,-3 -3,-3z" fill="#8d6c9f"/><path d="M132,150c-1.65234,0 -3,1.34766 -3,3v6c0,1.65234 1.34766,3 3,3c1.65234,0 3,-1.34766 3,-3v-6c0,-1.65234 -1.34766,-3 -3,-3z" fill="#8d6c9f"/><path d="M147,150c-1.65234,0 -3,1.34766 -3,3v6c0,1.65234 1.34766,3 3,3c1.65234,0 3,-1.34766 3,-3v-6c0,-1.65234 -1.34766,-3 -3,-3z" fill="#8d6c9f"/><path d="M162,150c-1.65234,0 -3,1.34766 -3,3v6c0,1.65234 1.34766,3 3,3c1.65234,0 3,-1.34766 3,-3v-6c0,-1.65234 -1.34766,-3 -3,-3z" fill="#8d6c9f"/><path d="M57,150c-1.65234,0 -3,1.34766 -3,3v6c0,1.65234 1.34766,3 3,3c1.65234,0 3,-1.34766 3,-3v-6c0,-1.65234 -1.34766,-3 -3,-3z" fill="#8d6c9f"/><path d="M72,150c-1.65234,0 -3,1.34766 -3,3v6c0,1.65234 1.34766,3 3,3c1.65234,0 3,-1.34766 3,-3v-6c0,-1.65234 -1.34766,-3 -3,-3z" fill="#8d6c9f"/><path d="M147,66h-102c-1.65234,0 -3,1.34766 -3,3c0,1.65234 1.34766,3 3,3h102c1.65234,0 3,-1.34766 3,-3c0,-1.65234 -1.34766,-3 -3,-3z" fill="#faefde"/><path d="M147,90h-102c-1.65234,0 -3,1.34766 -3,3c0,1.65234 1.34766,3 3,3h102c1.65234,0 3,-1.34766 3,-3c0,-1.65234 -1.34766,-3 -3,-3z" fill="#faefde"/><path d="M147,114h-102c-1.65234,0 -3,1.34766 -3,3c0,1.65234 1.34766,3 3,3h102c1.65234,0 3,-1.34766 3,-3c0,-1.65234 -1.34766,-3 -3,-3z" fill="#faefde"/></g></g></g></svg>
